<svg width="477.159" height="477.159" xmlns="http://www.w3.org/2000/svg" xmlns:svg="http://www.w3.org/2000/svg">
 <title>goFullscreen</title>
 <g>
  <title>Layer 1</title>
  <path transform="rotate(45 399.1594848632812,400.1375427246094) " id="svg_2" fill="#eeeeee" d="m350.892809,251.142665c-3.831114,0 -7.6389,1.55657 -10.347245,4.203032l-41.388979,40.42084c-2.702324,2.644258 -4.280373,6.346072 -4.280373,10.082427s1.577296,7.460952 4.280373,10.10521l86.210986,84.194405l-86.210986,84.195139c-2.757259,2.694968 -4.337565,6.502611 -4.280373,10.311724c0.058697,3.663598 1.627716,7.283835 4.280373,9.875914l41.388979,40.42084c2.708344,2.646463 6.51613,4.18025 10.347245,4.18025s7.6389,-1.533787 10.347245,-4.18025l137.923881,-134.697672c2.709849,-2.644993 4.280373,-6.36371 4.280373,-10.10521s-1.570524,-7.460217 -4.280373,-10.10521l-137.923881,-134.698407c-2.709097,-2.647198 -6.51613,-4.203032 -10.347245,-4.203032l0,0z"/>
  <path id="svg_4" transform="rotate(135 78.68063354492188,400.1542053222657) " fill="#eeeeee" d="m30.413936,251.159333c-3.83112,0 -7.6389,1.55657 -10.34725,4.20303l-41.38898,40.42084c-2.70232,2.64426 -4.28037,6.34607 -4.28037,10.08242s1.5773,7.46096 4.28037,10.10521l86.21099,84.19441l-86.21099,84.19514c-2.75725,2.69497 -4.33756,6.50261 -4.28037,10.31172c0.0587,3.6636 1.62772,7.28384 4.28037,9.87592l41.38898,40.42084c2.70835,2.64646 6.51613,4.18025 10.34725,4.18025s7.6389,-1.53379 10.34724,-4.18025l137.92388,-134.69768c2.70985,-2.64499 4.28038,-6.36371 4.28038,-10.10521s-1.57053,-7.46021 -4.28038,-10.10521l-137.92388,-134.6984c-2.70909,-2.6472 -6.51613,-4.20303 -10.34724,-4.20303l0,0z"/>
  <path id="svg_5" transform="rotate(-135 78.66400146484375,76.4522705078125) " fill="#eeeeee" d="m30.397306,-72.542618c-3.83112,0 -7.6389,1.55657 -10.34725,4.20303l-41.38898,40.42084c-2.70232,2.64426 -4.28037,6.34607 -4.28037,10.08242s1.5773,7.46096 4.28037,10.10521l86.21099,84.19441l-86.21099,84.19514c-2.75725,2.69497 -4.33756,6.50261 -4.28037,10.31172c0.0587,3.6636 1.62772,7.28384 4.28037,9.87592l41.38898,40.42084c2.70835,2.64646 6.51613,4.18025 10.34725,4.18025s7.6389,-1.53379 10.34724,-4.18025l137.92388,-134.69768c2.70985,-2.64499 4.28038,-6.36371 4.28038,-10.10521s-1.57053,-7.46021 -4.28038,-10.10521l-137.92388,-134.6984c-2.70909,-2.6472 -6.51613,-4.20303 -10.34724,-4.20303l0,0z"/>
  <path id="svg_6" transform="rotate(-45 399.1428527832032,76.43565368652347) " fill="#eeeeee" d="m350.876159,-72.559236c-3.83112,0 -7.6389,1.55657 -10.34725,4.20303l-41.38898,40.42084c-2.70232,2.64426 -4.28037,6.34607 -4.28037,10.08242s1.5773,7.46096 4.28037,10.10521l86.21099,84.19441l-86.21099,84.19514c-2.75725,2.69497 -4.33756,6.50261 -4.28037,10.31172c0.0587,3.6636 1.62772,7.28384 4.28037,9.87592l41.38898,40.42084c2.70835,2.64646 6.51613,4.18025 10.34725,4.18025s7.6389,-1.53379 10.34724,-4.18025l137.92388,-134.69768c2.70985,-2.64499 4.28038,-6.36371 4.28038,-10.10521s-1.57053,-7.46021 -4.28038,-10.10521l-137.92388,-134.6984c-2.70909,-2.6472 -6.51613,-4.20303 -10.34724,-4.20303l0,0z"/>
 </g>
</svg>